<?xml version="1.0" encoding="utf-8"?>
<!-- Generator: Adobe Illustrator 21.1.0, SVG Export Plug-In . SVG Version: 6.00 Build 0)  -->
<svg version="1.1" id="Layer_1" xmlns="http://www.w3.org/2000/svg" xmlns:xlink="http://www.w3.org/1999/xlink" x="0px" y="0px"
	 width="140px" height="140px" viewBox="0 0 140 140" style="enable-background:new 0 0 140 140;" xml:space="preserve">
<style type="text/css">
	.st0{fill:#BAD80A;}
	.st1{fill:#00BCF2;}
	.st2{fill:#0078D7;}
</style>
<path class="st0" d="M65,40.6c21.9-4.6,43.3,9.5,47.9,31.4c4.6,21.9-9.5,43.3-31.4,47.9c-21.9,4.6-43.3-9.5-47.9-31.4c0,0,0,0,0,0
	C29,66.6,43,45.2,64.9,40.6C64.9,40.6,65,40.6,65,40.6z"/>
<path class="st1" d="M33.6,88.5c1.5,7.1,4.8,13.7,9.7,19.1h13.4c6,0,10.8-4.8,10.8-10.8c0-6-4.8-10.8-10.8-10.8h-1.6
	c0.2-0.8,0.3-1.7,0.3-2.5c0-6-4.8-10.8-10.8-10.8H33.4C32.5,77.9,32.5,83.3,33.6,88.5z"/>
<path class="st1" d="M65.2,65.3c0,6.2,5,11.2,11.2,11.2c0,0,0,0,0,0h37.2c-0.1-1.5-0.4-3-0.7-4.5c-2.4-11.4-9.6-21.3-19.8-27H88
	c-4,0-7.3,3.2-7.3,7.2c0,0.6,0.1,1.3,0.3,1.9h-4.7C70.1,54.1,65.2,59.1,65.2,65.3z"/>
<path class="st1" d="M113.5,84.8H91.3c-5,0-9.1,4.1-9.1,9.1c0,1.5,0.4,3,1.1,4.3c-4.8,1.5-7.5,6.6-6,11.4c1.2,3.8,4.7,6.4,8.7,6.4
	h6.2C104,109.8,112,98.1,113.5,84.8z"/>
<circle class="st2" cx="131" cy="112.9" r="7.9"/>
<circle class="st2" cx="106.6" cy="26.8" r="11.6"/>
<path class="st2" d="M139.3,59.8c-2.2-7.2-11.5-11-26.9-11c-4.2,0-8.5,0.3-12.7,0.8c2.3,2,4.4,4.2,6.2,6.6c2.2-0.1,4.4-0.2,6.5-0.2
	c13.4,0,19.2,3.2,20,5.9c2.1,6.9-17.4,23.6-54,34.9c-16,5-31.8,7.7-44.3,7.7c-13.4,0-19.2-3.2-20-5.9c-1.3-4.2,5.3-11.9,18.7-19.8
	c0.1-3,0.6-5.9,1.3-8.8C16.4,79.5,4.2,90.8,7.2,100.7c2.2,7.2,11.5,11,26.9,11c13.2,0,29.7-2.9,46.4-8c17.1-5.3,32.5-12.4,43.4-20.1
	C136.1,75.1,141.4,66.8,139.3,59.8z"/>
<path class="st2" d="M44.8,36.3c-0.1,0-0.1,0-0.2,0c-9.6,0-17.4-7.8-17.5-17.4c0-1.8-1.5-3.3-3.3-3.3c-1.8,0-3.3,1.5-3.3,3.3
	c0,9.6-7.8,17.4-17.5,17.4c0,0,0,0,0,0c-1.8,0-3.3,1.5-3.3,3.3c0,1.8,1.5,3.3,3.3,3.3c0,0,0,0,0,0c9.7,0,17.5,7.8,17.5,17.5
	c0,1.8,1.5,3.3,3.3,3.3c1.8,0,3.3-1.5,3.3-3.3c0-9.7,7.8-17.5,17.5-17.5c1.8,0,3.3-1.5,3.3-3.3C48,37.8,46.6,36.4,44.8,36.3z"/>
</svg>
